<!DOCTYPE svg PUBLIC "-//W3C//DTD SVG 1.1//EN" "http://www.w3.org/Graphics/SVG/1.1/DTD/svg11.dtd">
<svg xmlns="http://www.w3.org/2000/svg" xmlns:xlink="http://www.w3.org/1999/xlink" version="1.1" width="894" height="530" viewBox="-0.5 -0.5 894 530"><defs><clipPath id="mx-clip-4-286-92-26-0"><rect x="4" y="286" width="92" height="26"/></clipPath><clipPath id="mx-clip-4-312-92-26-0"><rect x="4" y="312" width="92" height="26"/></clipPath><clipPath id="mx-clip-4-338-92-26-0"><rect x="4" y="338" width="92" height="26"/></clipPath><clipPath id="mx-clip-4-364-92-26-0"><rect x="4" y="364" width="92" height="26"/></clipPath><clipPath id="mx-clip-4-390-92-26-0"><rect x="4" y="390" width="92" height="26"/></clipPath><clipPath id="mx-clip-327-276-92-26-0"><rect x="327" y="276" width="92" height="26"/></clipPath><clipPath id="mx-clip-327-302-92-26-0"><rect x="327" y="302" width="92" height="26"/></clipPath><clipPath id="mx-clip-327-328-92-26-0"><rect x="327" y="328" width="92" height="26"/></clipPath><clipPath id="mx-clip-327-354-92-26-0"><rect x="327" y="354" width="92" height="26"/></clipPath><clipPath id="mx-clip-204-406-92-26-0"><rect x="204" y="406" width="92" height="26"/></clipPath><clipPath id="mx-clip-204-432-92-26-0"><rect x="204" y="432" width="92" height="26"/></clipPath><clipPath id="mx-clip-204-458-92-26-0"><rect x="204" y="458" width="92" height="26"/></clipPath><clipPath id="mx-clip-204-484-92-26-0"><rect x="204" y="484" width="92" height="26"/></clipPath><clipPath id="mx-clip-204-46-122-26-0"><rect x="204" y="46" width="122" height="26"/></clipPath><clipPath id="mx-clip-204-72-122-26-0"><rect x="204" y="72" width="122" height="26"/></clipPath><clipPath id="mx-clip-204-98-122-26-0"><rect x="204" y="98" width="122" height="26"/></clipPath><clipPath id="mx-clip-204-124-122-26-0"><rect x="204" y="124" width="122" height="26"/></clipPath><clipPath id="mx-clip-204-150-122-26-0"><rect x="204" y="150" width="122" height="26"/></clipPath><clipPath id="mx-clip-204-176-122-26-0"><rect x="204" y="176" width="122" height="26"/></clipPath><clipPath id="mx-clip-524-206-122-26-0"><rect x="524" y="206" width="122" height="26"/></clipPath><clipPath id="mx-clip-524-232-122-26-0"><rect x="524" y="232" width="122" height="26"/></clipPath><clipPath id="mx-clip-524-258-122-26-0"><rect x="524" y="258" width="122" height="26"/></clipPath><clipPath id="mx-clip-524-284-122-26-0"><rect x="524" y="284" width="122" height="26"/></clipPath><clipPath id="mx-clip-524-310-122-26-0"><rect x="524" y="310" width="122" height="26"/></clipPath><clipPath id="mx-clip-724-124-92-26-0"><rect x="724" y="124" width="92" height="26"/></clipPath><clipPath id="mx-clip-724-150-92-26-0"><rect x="724" y="150" width="92" height="26"/></clipPath><clipPath id="mx-clip-724-176-92-26-0"><rect x="724" y="176" width="92" height="26"/></clipPath><clipPath id="mx-clip-724-445-92-26-0"><rect x="724" y="445" width="92" height="26"/></clipPath><clipPath id="mx-clip-724-471-92-26-0"><rect x="724" y="471" width="92" height="26"/></clipPath><clipPath id="mx-clip-724-497-92-26-0"><rect x="724" y="497" width="92" height="26"/></clipPath><clipPath id="mx-clip-791-285-92-26-0"><rect x="791" y="285" width="92" height="26"/></clipPath><clipPath id="mx-clip-791-311-92-26-0"><rect x="791" y="311" width="92" height="26"/></clipPath><clipPath id="mx-clip-791-337-92-26-0"><rect x="791" y="337" width="92" height="26"/></clipPath><filter id="dropShadow"><feGaussianBlur in="SourceAlpha" stdDeviation="1.7" result="blur"/><feOffset in="blur" dx="3" dy="3" result="offsetBlur"/><feFlood flood-color="#3D4574" flood-opacity="0.4" result="offsetColor"/><feComposite in="offsetColor" in2="offsetBlur" operator="in" result="offsetBlur"/><feBlend in="SourceGraphic" in2="offsetBlur"/></filter></defs><g filter="url(#dropShadow)"><path d="M 0 286 L 0.24 286 L 0.03 280.8 L -0.01 275.6 L 0.03 270.4 L -0.15 265.2 L 0 260 L 0 260.7 L 10 259.26 L 20 260.22 L 30 259.44 L 40 260.6 L 50 260.09 L 60 260.64 L 70 259.91 L 80 260.64 L 90 260.55 L 100 260 L 100.19 260 L 99.91 265.2 L 100.17 270.4 L 99.89 275.6 L 99.75 280.8 L 100 286" fill="none" stroke="#000000" stroke-linejoin="round" stroke-linecap="round" stroke-miterlimit="10" pointer-events="none"/><path d="M 0 286 L -0.13 286 L -0.19 296 L -0.12 306 L -0.01 316 L -0.01 326 L 0.11 336 L -0.36 346 L -0.13 356 L -0.01 366 L 0.73 376 L -0.15 386 L 0.38 396 L 0.11 406 L 0 416 L 0 416.45 L 10 416.1 L 20 416.16 L 30 416.28 L 40 415.32 L 50 416.17 L 60 415.57 L 70 416.68 L 80 415.9 L 90 415.94 L 100 416 L 100.05 416 L 100.35 406 L 100.13 396 L 100.52 386 L 99.6 376 L 99.5 366 L 99.53 356 L 99.58 346 L 99.4 336 L 99.82 326 L 100.17 316 L 99.34 306 L 100.27 296 L 100 286" fill="none" stroke="#000000" stroke-linejoin="round" stroke-linecap="round" stroke-miterlimit="10" pointer-events="none"/><path d="M 0 286 L 0 286.13 L 10 285.41 L 20 285.59 L 30 286.61 L 40 286.21 L 50 286.38 L 60 286.72 L 70 286.14 L 80 285.48 L 90 286.65 L 100 286" fill="none" stroke="#000000" stroke-linejoin="round" stroke-linecap="round" stroke-miterlimit="10" pointer-events="none"/><g fill="#000000" font-family="Comic Sans MS" text-anchor="middle" font-size="16px"><text x="49.5" y="279.5">dict</text></g><g fill="#000000" font-family="Comic Sans MS" clip-path="url(#mx-clip-4-286-92-26-0)" text-anchor="middle" font-size="16px"><text x="49.5" y="304.5">type</text></g><g fill="#000000" font-family="Comic Sans MS" clip-path="url(#mx-clip-4-312-92-26-0)" text-anchor="middle" font-size="16px"><text x="49.5" y="330.5">privdata</text></g><g fill="#000000" font-family="Comic Sans MS" clip-path="url(#mx-clip-4-338-92-26-0)" text-anchor="middle" font-size="16px"><text x="49.5" y="356.5">ht[2]</text></g><g fill="#000000" font-family="Comic Sans MS" clip-path="url(#mx-clip-4-364-92-26-0)" text-anchor="middle" font-size="16px"><text x="49.5" y="382.5">rehashidx</text></g><g fill="#000000" font-family="Comic Sans MS" clip-path="url(#mx-clip-4-390-92-26-0)" text-anchor="middle" font-size="16px"><text x="49.5" y="408.5">iterators</text></g><path d="M 323 276 L 322.77 276 L 323.03 270.8 L 323 265.6 L 322.96 260.4 L 322.91 255.2 L 323 250 L 323 249.5 L 333 249.53 L 343 250.17 L 353 250.66 L 363 249.61 L 373 250.16 L 383 250.22 L 393 250.33 L 403 249.44 L 413 250.38 L 423 250 L 423.19 250 L 423.07 255.2 L 423.03 260.4 L 422.82 265.6 L 422.95 270.8 L 423 276" fill="none" stroke="#000000" stroke-linejoin="round" stroke-linecap="round" stroke-miterlimit="10" pointer-events="none"/><path d="M 323 276 L 323.44 276 L 322.79 286.4 L 323.51 296.8 L 323.36 307.2 L 323.41 317.6 L 323.28 328 L 322.98 338.4 L 322.33 348.8 L 322.78 359.2 L 322.45 369.6 L 323 380 L 323 380.01 L 333 379.48 L 343 379.67 L 353 379.97 L 363 379.82 L 373 379.78 L 383 379.5 L 393 380.06 L 403 379.78 L 413 379.98 L 423 380 L 422.53 380 L 423.35 369.6 L 423.09 359.2 L 422.85 348.8 L 422.7 338.4 L 423.13 328 L 423.36 317.6 L 423.13 307.2 L 423.44 296.8 L 423.44 286.4 L 423 276" fill="none" stroke="#000000" stroke-linejoin="round" stroke-linecap="round" stroke-miterlimit="10" pointer-events="none"/><path d="M 323 276 L 323 275.65 L 333 275.75 L 343 275.28 L 353 276.15 L 363 275.99 L 373 276.08 L 383 275.29 L 393 276.63 L 403 276.44 L 413 275.95 L 423 276" fill="none" stroke="#000000" stroke-linejoin="round" stroke-linecap="round" stroke-miterlimit="10" pointer-events="none"/><g fill="#000000" font-family="Comic Sans MS" text-anchor="middle" font-size="16px"><text x="372.5" y="269.5">dictht</text></g><g fill="#000000" font-family="Comic Sans MS" clip-path="url(#mx-clip-327-276-92-26-0)" text-anchor="middle" font-size="16px"><text x="372.5" y="294.5">table</text></g><g fill="#000000" font-family="Comic Sans MS" clip-path="url(#mx-clip-327-302-92-26-0)" text-anchor="middle" font-size="16px"><text x="372.5" y="320.5">size</text></g><g fill="#000000" font-family="Comic Sans MS" clip-path="url(#mx-clip-327-328-92-26-0)" text-anchor="middle" font-size="16px"><text x="372.5" y="346.5">sizemask</text></g><g fill="#000000" font-family="Comic Sans MS" clip-path="url(#mx-clip-327-354-92-26-0)" text-anchor="middle" font-size="16px"><text x="372.5" y="372.5">used</text></g><path d="M 100 351 Q 212 351 212 290.5 Q 212 230 292.5 230 Q 373 230 373 243.63" fill="none" stroke="#000000" stroke-linejoin="round" stroke-linecap="round" stroke-miterlimit="10" pointer-events="none"/><path d="M 373 248.88 L 373.15 248.96 L 372.28 247.47 L 371.64 246.1 L 370.91 244.69 L 370.18 243.27 L 369.5 241.88 L 369.6 242.07 L 370.21 242.25 L 370.87 242.52 L 371.59 242.91 L 372.22 243.13 L 373 243.63 L 373.06 243.76 L 373.8 243.48 L 374.47 243.06 L 375.11 242.6 L 375.88 242.39 L 376.5 241.88 L 376.33 241.8 L 375.9 243.33 L 374.95 244.61 L 374.37 246.07 L 373.52 247.39 L 373 248.88 Z Z" fill="#000000" stroke="#000000" stroke-linejoin="round" stroke-linecap="round" stroke-miterlimit="10" pointer-events="none"/><path d="M 100 351 Q 250 351 250 373.63" fill="none" stroke="#000000" stroke-linejoin="round" stroke-linecap="round" stroke-miterlimit="10" pointer-events="none"/><path d="M 250 378.88 L 250.19 378.98 L 249.43 377.55 L 248.4 375.98 L 247.71 374.59 L 247.14 373.25 L 246.5 371.88 L 246.42 371.72 L 247.23 372.29 L 247.81 372.41 L 248.49 372.72 L 249.36 373.4 L 250 373.63 L 249.92 373.48 L 250.64 373.16 L 251.36 372.85 L 252.11 372.61 L 252.91 372.45 L 253.5 371.88 L 253.5 371.88 L 252.7 373.23 L 252.3 374.78 L 251.18 375.97 L 250.48 377.37 L 250 378.88 Z Z" fill="#000000" stroke="#000000" stroke-linejoin="round" stroke-linecap="round" stroke-miterlimit="10" pointer-events="none"/><path d="M 200 406 L 199.98 406 L 200.06 400.8 L 200.19 395.6 L 200.15 390.4 L 199.82 385.2 L 200 380 L 200 380.44 L 210 380.68 L 220 380.49 L 230 379.51 L 240 380.34 L 250 380.26 L 260 380.5 L 270 380.16 L 280 380.47 L 290 380.06 L 300 380 L 299.76 380 L 300.21 385.2 L 300.04 390.4 L 300.21 395.6 L 300.1 400.8 L 300 406" fill="none" stroke="#000000" stroke-linejoin="round" stroke-linecap="round" stroke-miterlimit="10" pointer-events="none"/><path d="M 200 406 L 199.42 406 L 200.57 416.4 L 199.47 426.8 L 199.71 437.2 L 199.43 447.6 L 200.29 458 L 200.26 468.4 L 200.48 478.8 L 199.53 489.2 L 199.27 499.6 L 200 510 L 200 510.6 L 210 509.68 L 220 510.49 L 230 509.88 L 240 509.67 L 250 509.36 L 260 509.41 L 270 509.81 L 280 509.33 L 290 510.72 L 300 510 L 300.23 510 L 300.52 499.6 L 299.89 489.2 L 299.89 478.8 L 299.39 468.4 L 300.71 458 L 299.93 447.6 L 300.29 437.2 L 300.49 426.8 L 300.12 416.4 L 300 406" fill="none" stroke="#000000" stroke-linejoin="round" stroke-linecap="round" stroke-miterlimit="10" pointer-events="none"/><path d="M 200 406 L 200 406.7 L 210 405.7 L 220 406.3 L 230 406.26 L 240 405.65 L 250 406.68 L 260 405.5 L 270 405.37 L 280 406.17 L 290 405.82 L 300 406" fill="none" stroke="#000000" stroke-linejoin="round" stroke-linecap="round" stroke-miterlimit="10" pointer-events="none"/><g fill="#000000" font-family="Comic Sans MS" text-anchor="middle" font-size="16px"><text x="249.5" y="399.5">dictht</text></g><g fill="#000000" font-family="Comic Sans MS" clip-path="url(#mx-clip-204-406-92-26-0)" text-anchor="middle" font-size="16px"><text x="249.5" y="424.5">table</text></g><g fill="#000000" font-family="Comic Sans MS" clip-path="url(#mx-clip-204-432-92-26-0)" text-anchor="middle" font-size="16px"><text x="249.5" y="450.5">size</text></g><g fill="#000000" font-family="Comic Sans MS" clip-path="url(#mx-clip-204-458-92-26-0)" text-anchor="middle" font-size="16px"><text x="249.5" y="476.5">sizemask</text></g><g fill="#000000" font-family="Comic Sans MS" clip-path="url(#mx-clip-204-484-92-26-0)" text-anchor="middle" font-size="16px"><text x="249.5" y="502.5">used</text></g><path d="M 200 46 L 200.03 46 L 199.96 40.8 L 200.13 35.6 L 200 30.4 L 199.94 25.2 L 200 20 L 200 19.95 L 210 20.63 L 220 19.57 L 230 20.53 L 240 19.89 L 250 20.62 L 260 20.14 L 270 19.94 L 280 20.48 L 290 19.35 L 300 20.23 L 310 20.09 L 320 20.23 L 330 20 L 329.77 20 L 330.08 25.2 L 329.88 30.4 L 330.19 35.6 L 329.95 40.8 L 330 46" fill="none" stroke="#000000" stroke-linejoin="round" stroke-linecap="round" stroke-miterlimit="10" pointer-events="none"/><path d="M 200 46 L 200.72 46 L 199.93 55.75 L 200.44 65.5 L 200.56 75.25 L 200.14 85 L 200.59 94.75 L 200.13 104.5 L 199.42 114.25 L 199.82 124 L 199.28 133.75 L 199.87 143.5 L 200.32 153.25 L 199.28 163 L 199.6 172.75 L 199.56 182.5 L 200.66 192.25 L 200 202 L 200 202.31 L 210 201.9 L 220 201.27 L 230 201.52 L 240 202.58 L 250 201.94 L 260 201.88 L 270 201.73 L 280 202.6 L 290 201.78 L 300 201.81 L 310 201.66 L 320 201.92 L 330 202 L 330.65 202 L 330.41 192.25 L 330.47 182.5 L 330.68 172.75 L 329.47 163 L 330.41 153.25 L 329.32 143.5 L 329.81 133.75 L 330.37 124 L 330.37 114.25 L 330.11 104.5 L 329.86 94.75 L 330.05 85 L 330.47 75.25 L 330.6 65.5 L 330.64 55.75 L 330 46" fill="none" stroke="#000000" stroke-linejoin="round" stroke-linecap="round" stroke-miterlimit="10" pointer-events="none"/><path d="M 200 46 L 200 46.69 L 210 46.66 L 220 45.7 L 230 46.19 L 240 46.73 L 250 45.67 L 260 45.83 L 270 46.17 L 280 45.43 L 290 45.59 L 300 45.28 L 310 45.58 L 320 45.72 L 330 46" fill="none" stroke="#000000" stroke-linejoin="round" stroke-linecap="round" stroke-miterlimit="10" pointer-events="none"/><g fill="#000000" font-family="Comic Sans MS" text-anchor="middle" font-size="16px"><text x="264.5" y="39.5">dictType</text></g><g fill="#000000" font-family="Comic Sans MS" clip-path="url(#mx-clip-204-46-122-26-0)" text-anchor="middle" font-size="16px"><text x="264.5" y="64.5">hashFunction</text></g><g fill="#000000" font-family="Comic Sans MS" clip-path="url(#mx-clip-204-72-122-26-0)" text-anchor="middle" font-size="16px"><text x="264.5" y="90.5">keyDup</text></g><g fill="#000000" font-family="Comic Sans MS" clip-path="url(#mx-clip-204-98-122-26-0)" text-anchor="middle" font-size="16px"><text x="264.5" y="116.5">valDup</text></g><g fill="#000000" font-family="Comic Sans MS" clip-path="url(#mx-clip-204-124-122-26-0)" text-anchor="middle" font-size="16px"><text x="264.5" y="142.5">keyCompare</text></g><g fill="#000000" font-family="Comic Sans MS" clip-path="url(#mx-clip-204-150-122-26-0)" text-anchor="middle" font-size="16px"><text x="264.5" y="168.5">keyDestructor</text></g><g fill="#000000" font-family="Comic Sans MS" clip-path="url(#mx-clip-204-176-122-26-0)" text-anchor="middle" font-size="16px"><text x="264.5" y="194.5">valDestructor</text></g><path d="M 100 299 Q 150 299 150 149.5 Q 150 0 207.5 0 Q 265 0 265 13.63" fill="none" stroke="#000000" stroke-linejoin="round" stroke-linecap="round" stroke-miterlimit="10" pointer-events="none"/><path d="M 265 18.88 L 265.14 18.95 L 264.08 17.37 L 263.64 16.1 L 263.08 14.77 L 262.14 13.25 L 261.5 11.88 L 261.5 11.89 L 262.09 12.02 L 263 12.78 L 263.61 12.96 L 264.24 13.16 L 265 13.63 L 265.07 13.78 L 265.62 13.12 L 266.47 13.07 L 267.02 12.42 L 267.85 12.33 L 268.5 11.88 L 268.33 11.8 L 267.68 13.22 L 267.05 14.66 L 266.25 16.01 L 265.78 17.52 L 265 18.88 Z Z" fill="#000000" stroke="#000000" stroke-linejoin="round" stroke-linecap="round" stroke-miterlimit="10" pointer-events="none"/><path d="M 520 206 L 520.07 206 L 519.76 200.8 L 519.93 195.6 L 519.79 190.4 L 520.21 185.2 L 520 180 L 520 180.02 L 530 179.97 L 540 179.64 L 550 180.51 L 560 179.43 L 570 180.27 L 580 179.68 L 590 179.59 L 600 179.85 L 610 180.03 L 620 179.6 L 630 180.36 L 640 179.39 L 650 180 L 649.79 180 L 650.19 185.2 L 650.19 190.4 L 650.19 195.6 L 650 200.8 L 650 206" fill="none" stroke="#000000" stroke-linejoin="round" stroke-linecap="round" stroke-miterlimit="10" pointer-events="none"/><path d="M 520 206 L 519.64 206 L 519.55 216 L 520.5 226 L 520.51 236 L 519.48 246 L 520.16 256 L 520.23 266 L 519.76 276 L 519.57 286 L 519.35 296 L 520.41 306 L 519.79 316 L 519.93 326 L 520 336 L 520 335.66 L 530 336.47 L 540 336.43 L 550 335.8 L 560 335.92 L 570 336.71 L 580 336.41 L 590 335.54 L 600 335.9 L 610 335.56 L 620 335.98 L 630 336.66 L 640 336.08 L 650 336 L 650.12 336 L 650.42 326 L 649.42 316 L 650.04 306 L 650.73 296 L 649.3 286 L 649.38 276 L 650.62 266 L 649.76 256 L 650.18 246 L 650.46 236 L 649.31 226 L 650.67 216 L 650 206" fill="none" stroke="#000000" stroke-linejoin="round" stroke-linecap="round" stroke-miterlimit="10" pointer-events="none"/><path d="M 520 206 L 520 205.54 L 530 205.29 L 540 206.52 L 550 206.49 L 560 205.29 L 570 206.09 L 580 205.26 L 590 205.38 L 600 206.26 L 610 206.62 L 620 205.85 L 630 206.16 L 640 206.08 L 650 206" fill="none" stroke="#000000" stroke-linejoin="round" stroke-linecap="round" stroke-miterlimit="10" pointer-events="none"/><g fill="#000000" font-family="Comic Sans MS" text-anchor="middle" font-size="16px"><text x="584.5" y="199.5">dictEntry **</text></g><g fill="#000000" font-family="Comic Sans MS" clip-path="url(#mx-clip-524-206-122-26-0)" text-anchor="middle" font-size="16px"><text x="584.5" y="224.5">0</text></g><g fill="#000000" font-family="Comic Sans MS" clip-path="url(#mx-clip-524-232-122-26-0)" text-anchor="middle" font-size="16px"><text x="584.5" y="250.5">1</text></g><g fill="#000000" font-family="Comic Sans MS" clip-path="url(#mx-clip-524-258-122-26-0)" text-anchor="middle" font-size="16px"><text x="584.5" y="276.5">2</text></g><g fill="#000000" font-family="Comic Sans MS" clip-path="url(#mx-clip-524-284-122-26-0)" text-anchor="middle" font-size="16px"><text x="584.5" y="302.5">3</text></g><g fill="#000000" font-family="Comic Sans MS" clip-path="url(#mx-clip-524-310-122-26-0)" text-anchor="middle" font-size="16px"><text x="584.5" y="328.5">4</text></g><path d="M 423 289 Q 472 289 472 224.5 Q 472 160 528.5 160 Q 585 160 585 173.63" fill="none" stroke="#000000" stroke-linejoin="round" stroke-linecap="round" stroke-miterlimit="10" pointer-events="none"/><path d="M 585 178.88 L 585.2 178.98 L 584.32 177.49 L 583.66 176.11 L 582.87 174.67 L 582.07 173.22 L 581.5 171.88 L 581.55 171.97 L 582.27 172.37 L 582.88 172.55 L 583.71 173.15 L 584.24 173.17 L 585 173.63 L 584.99 173.6 L 585.79 173.46 L 586.44 173.02 L 587.16 172.71 L 587.72 172.07 L 588.5 171.88 L 588.47 171.87 L 587.69 173.23 L 586.91 174.59 L 586.47 176.12 L 585.48 177.37 L 585 178.88 Z Z" fill="#000000" stroke="#000000" stroke-linejoin="round" stroke-linecap="round" stroke-miterlimit="10" pointer-events="none"/><path d="M 720 124 L 719.99 124 L 719.84 118.8 L 719.89 113.6 L 720.22 108.4 L 719.94 103.2 L 720 98 L 720 97.57 L 730 97.62 L 740 98.36 L 750 98.35 L 760 97.9 L 770 97.58 L 780 98.31 L 790 98.32 L 800 97.8 L 810 98.6 L 820 98 L 820.09 98 L 819.91 103.2 L 820.17 108.4 L 820.23 113.6 L 819.84 118.8 L 820 124" fill="none" stroke="#000000" stroke-linejoin="round" stroke-linecap="round" stroke-miterlimit="10" pointer-events="none"/><path d="M 720 124 L 720.41 124 L 719.75 133.75 L 720.64 143.5 L 719.41 153.25 L 719.98 163 L 719.79 172.75 L 720.37 182.5 L 720.33 192.25 L 720 202 L 720 202.71 L 730 201.3 L 740 201.92 L 750 202.37 L 760 202.65 L 770 202.57 L 780 202.59 L 790 201.4 L 800 202.43 L 810 202.65 L 820 202 L 819.42 202 L 820.58 192.25 L 820.34 182.5 L 819.54 172.75 L 820.2 163 L 820.41 153.25 L 819.79 143.5 L 820.14 133.75 L 820 124" fill="none" stroke="#000000" stroke-linejoin="round" stroke-linecap="round" stroke-miterlimit="10" pointer-events="none"/><path d="M 720 124 L 720 124 L 730 124.27 L 740 124.71 L 750 123.97 L 760 123.64 L 770 123.88 L 780 124.1 L 790 124.15 L 800 123.4 L 810 124.12 L 820 124" fill="none" stroke="#000000" stroke-linejoin="round" stroke-linecap="round" stroke-miterlimit="10" pointer-events="none"/><g fill="#000000" font-family="Comic Sans MS" text-anchor="middle" font-size="16px"><text x="769.5" y="117.5">dictEntry</text></g><g fill="#000000" font-family="Comic Sans MS" clip-path="url(#mx-clip-724-124-92-26-0)" text-anchor="middle" font-size="16px"><text x="769.5" y="142.5">key</text></g><g fill="#000000" font-family="Comic Sans MS" clip-path="url(#mx-clip-724-150-92-26-0)" text-anchor="middle" font-size="16px"><text x="769.5" y="168.5">v</text></g><g fill="#000000" font-family="Comic Sans MS" clip-path="url(#mx-clip-724-176-92-26-0)" text-anchor="middle" font-size="16px"><text x="769.5" y="194.5">next</text></g><path d="M 720 445 L 719.92 445 L 719.79 439.8 L 720.23 434.6 L 720.08 429.4 L 720.1 424.2 L 720 419 L 720 418.41 L 730 418.88 L 740 419.56 L 750 419.71 L 760 418.98 L 770 418.86 L 780 418.48 L 790 418.37 L 800 419.09 L 810 419.25 L 820 419 L 819.86 419 L 820.1 424.2 L 819.83 429.4 L 820.14 434.6 L 819.78 439.8 L 820 445" fill="none" stroke="#000000" stroke-linejoin="round" stroke-linecap="round" stroke-miterlimit="10" pointer-events="none"/><path d="M 720 445 L 720.23 445 L 720.33 454.75 L 720.3 464.5 L 719.81 474.25 L 719.9 484 L 720.08 493.75 L 720.33 503.5 L 719.57 513.25 L 720 523 L 720 522.28 L 730 523.67 L 740 522.86 L 750 522.68 L 760 522.95 L 770 522.43 L 780 523.02 L 790 523.15 L 800 523.16 L 810 523.13 L 820 523 L 820.07 523 L 820.29 513.25 L 820.5 503.5 L 819.56 493.75 L 820.64 484 L 819.71 474.25 L 820.7 464.5 L 820.53 454.75 L 820 445" fill="none" stroke="#000000" stroke-linejoin="round" stroke-linecap="round" stroke-miterlimit="10" pointer-events="none"/><path d="M 720 445 L 720 445.68 L 730 445.42 L 740 445.34 L 750 445.75 L 760 444.81 L 770 444.4 L 780 445.11 L 790 445.43 L 800 444.61 L 810 445.55 L 820 445" fill="none" stroke="#000000" stroke-linejoin="round" stroke-linecap="round" stroke-miterlimit="10" pointer-events="none"/><g fill="#000000" font-family="Comic Sans MS" text-anchor="middle" font-size="16px"><text x="769.5" y="438.5">dictEntry</text></g><g fill="#000000" font-family="Comic Sans MS" clip-path="url(#mx-clip-724-445-92-26-0)" text-anchor="middle" font-size="16px"><text x="769.5" y="463.5">key</text></g><g fill="#000000" font-family="Comic Sans MS" clip-path="url(#mx-clip-724-471-92-26-0)" text-anchor="middle" font-size="16px"><text x="769.5" y="489.5">v</text></g><g fill="#000000" font-family="Comic Sans MS" clip-path="url(#mx-clip-724-497-92-26-0)" text-anchor="middle" font-size="16px"><text x="769.5" y="515.5">next</text></g><path d="M 787 284.5 L 786.76 284.5 L 786.85 279.3 L 787.1 274.1 L 786.85 268.9 L 786.92 263.7 L 787 258.5 L 787 258.49 L 797 257.83 L 807 257.82 L 817 258.41 L 827 258 L 837 258.48 L 847 258.31 L 857 259.25 L 867 258.63 L 877 258.38 L 887 258.5 L 886.95 258.5 L 886.82 263.7 L 887.02 268.9 L 887.15 274.1 L 887.03 279.3 L 887 284.5" fill="none" stroke="#000000" stroke-linejoin="round" stroke-linecap="round" stroke-miterlimit="10" pointer-events="none"/><path d="M 787 284.5 L 787.33 284.5 L 787.51 294.25 L 787.12 304 L 787.73 313.75 L 786.78 323.5 L 786.4 333.25 L 786.52 343 L 786.95 352.75 L 787 362.5 L 787 362.16 L 797 362.63 L 807 363.24 L 817 361.84 L 827 362.4 L 837 362.72 L 847 362.02 L 857 362.24 L 867 363.05 L 877 362.49 L 887 362.5 L 886.35 362.5 L 887.2 352.75 L 886.52 343 L 886.94 333.25 L 886.62 323.5 L 886.55 313.75 L 887.53 304 L 887.11 294.25 L 887 284.5" fill="none" stroke="#000000" stroke-linejoin="round" stroke-linecap="round" stroke-miterlimit="10" pointer-events="none"/><path d="M 787 284.5 L 787 285.25 L 797 283.92 L 807 284.09 L 817 284.49 L 827 284.47 L 837 284.89 L 847 284.82 L 857 284.31 L 867 284.16 L 877 285 L 887 284.5" fill="none" stroke="#000000" stroke-linejoin="round" stroke-linecap="round" stroke-miterlimit="10" pointer-events="none"/><g fill="#000000" font-family="Comic Sans MS" text-anchor="middle" font-size="16px"><text x="836.5" y="278">dictEntry</text></g><g fill="#000000" font-family="Comic Sans MS" clip-path="url(#mx-clip-791-285-92-26-0)" text-anchor="middle" font-size="16px"><text x="836.5" y="303">key</text></g><g fill="#000000" font-family="Comic Sans MS" clip-path="url(#mx-clip-791-311-92-26-0)" text-anchor="middle" font-size="16px"><text x="836.5" y="329">v</text></g><g fill="#000000" font-family="Comic Sans MS" clip-path="url(#mx-clip-791-337-92-26-0)" text-anchor="middle" font-size="16px"><text x="836.5" y="355">next</text></g><path d="M 650 219 Q 685 219 685 148.5 Q 685 78 727.5 78 Q 770 78 770 91.63" fill="none" stroke="#000000" stroke-linejoin="round" stroke-linecap="round" stroke-miterlimit="10" pointer-events="none"/><path d="M 770 96.88 L 770.09 96.93 L 769.49 95.58 L 768.45 94.01 L 767.93 92.7 L 767.07 91.21 L 766.5 89.88 L 766.59 90.06 L 767.23 90.3 L 767.99 90.77 L 768.52 90.78 L 769.3 91.28 L 770 91.63 L 769.95 91.54 L 770.71 91.3 L 771.43 90.99 L 772.07 90.52 L 772.87 90.37 L 773.5 89.88 L 773.48 89.87 L 772.9 91.33 L 772.27 92.76 L 771.6 94.18 L 770.48 95.37 L 770 96.88 Z Z" fill="#000000" stroke="#000000" stroke-linejoin="round" stroke-linecap="round" stroke-miterlimit="10" pointer-events="none"/><path d="M 650 271 Q 719 271 719 255 Q 719 239 778 239 Q 837 239 837 252.63" fill="none" stroke="#000000" stroke-linejoin="round" stroke-linecap="round" stroke-miterlimit="10" pointer-events="none"/><path d="M 837 257.88 L 837.16 257.96 L 836.12 256.39 L 835.47 255.02 L 834.88 253.67 L 834.01 252.19 L 833.5 250.88 L 833.43 250.74 L 834.18 251.19 L 834.84 251.46 L 835.67 252.07 L 836.37 252.43 L 837 252.63 L 837 252.63 L 837.71 252.31 L 838.39 251.92 L 839 251.38 L 839.91 251.46 L 840.5 250.88 L 840.66 250.96 L 839.64 252.2 L 838.92 253.59 L 838.49 255.13 L 837.91 256.59 L 837 257.88 Z Z" fill="#000000" stroke="#000000" stroke-linejoin="round" stroke-linecap="round" stroke-miterlimit="10" pointer-events="none"/><path d="M 650 297 Q 770 297 770 412.63" fill="none" stroke="#000000" stroke-linejoin="round" stroke-linecap="round" stroke-miterlimit="10" pointer-events="none"/><path d="M 770 417.88 L 769.95 417.86 L 769.46 416.56 L 768.52 415.04 L 768.01 413.74 L 767.31 412.34 L 766.5 410.88 L 766.51 410.9 L 767.27 411.38 L 767.87 411.53 L 768.53 411.8 L 769.24 412.15 L 770 412.63 L 769.96 412.55 L 770.71 412.31 L 771.47 412.06 L 772.18 411.75 L 772.84 411.31 L 773.5 410.88 L 773.58 410.92 L 772.58 412.17 L 772.21 413.74 L 771.32 415.04 L 770.89 416.58 L 770 417.88 Z Z" fill="#000000" stroke="#000000" stroke-linejoin="round" stroke-linecap="round" stroke-miterlimit="10" pointer-events="none"/></g></svg>